<svg width="113" height="114" viewBox="0 0 113 114" fill="none" xmlns="http://www.w3.org/2000/svg">
<path fill-rule="evenodd" clip-rule="evenodd" d="M78.6732 18.3113C97.6314 18.3113 113 33.68 113 52.6382C113 64.3525 107.132 74.6963 98.1755 80.8907L76.0983 98.0659C72.1572 101.132 66.4141 98.3234 66.4141 93.3302V91.0066C66.4141 88.186 64.4246 85.7988 61.7816 84.8137C48.7349 79.9508 39.4425 67.3797 39.4425 52.6382C39.4425 33.68 54.8112 18.3113 73.7694 18.3113H78.6732Z" fill="#C2185B"/>
<path fill-rule="evenodd" clip-rule="evenodd" d="M36.0197 14.195C16.1266 14.195 0 30.3215 0 50.2146C0 61.9989 5.65897 72.4614 14.4076 79.0328C14.4142 79.0378 14.4098 79.0483 14.4017 79.0471V79.0471C14.3936 79.0459 14.3892 79.0562 14.3956 79.0612L39.2103 98.2905C43.153 101.346 48.8855 98.5357 48.8855 93.5478V90.2362C48.8855 87.4158 50.8729 85.0264 53.5222 84.0589C67.3289 79.0166 77.185 65.7666 77.185 50.2146C77.185 30.3215 61.0585 14.195 41.1654 14.195H36.0197Z" fill="#E91E63"/>
</svg>
